<svg width="24" height="24" viewBox="0 0 24 24" fill="none" xmlns="http://www.w3.org/2000/svg">
<path d="M3 12C3 8.25027 3 6.3754 3.95491 5.06107C4.26331 4.6366 4.6366 4.26331 5.06107 3.95491C6.3754 3 8.25027 3 12 3C15.7497 3 17.6246 3 18.9389 3.95491C19.3634 4.26331 19.7367 4.6366 20.0451 5.06107C21 6.3754 21 8.25027 21 12C21 15.7497 21 17.6246 20.0451 18.9389C19.7367 19.3634 19.3634 19.7367 18.9389 20.0451C17.6246 21 15.7497 21 12 21C8.25027 21 6.3754 21 5.06107 20.0451C4.6366 19.7367 4.26331 19.3634 3.95491 18.9389C3 17.6246 3 15.7497 3 12Z" fill="#CED7FA"/>
<path d="M5.06107 20.0451L5.50191 19.4383L5.06107 20.0451ZM3.95491 18.9389L4.56168 18.4981L3.95491 18.9389ZM20.0451 18.9389L19.4383 18.4981L20.0451 18.9389ZM18.9389 20.0451L18.4981 19.4383L18.9389 20.0451ZM18.9389 3.95491L18.4981 4.56168L18.9389 3.95491ZM20.0451 5.06107L19.4383 5.50191L20.0451 5.06107ZM5.06107 3.95491L5.50191 4.56168L5.06107 3.95491ZM3.95491 5.06107L4.56168 5.50191L3.95491 5.06107ZM6.32665 14.5268C6.14423 14.8987 6.29782 15.3481 6.6697 15.5305C7.04158 15.7129 7.49093 15.5593 7.67335 15.1874L6.32665 14.5268ZM8.46033 11.8801L9.13368 12.2104L8.46033 11.8801ZM15.5397 12.1199L16.213 12.4502L15.5397 12.1199ZM17.6734 9.47316C17.8558 9.10127 17.7022 8.65192 17.3303 8.46951C16.9584 8.28709 16.5091 8.44068 16.3266 8.81256L17.6734 9.47316ZM12 12L11.3058 12.284L12 12ZM12 20.25C10.1084 20.25 8.74999 20.249 7.69804 20.135C6.66013 20.0225 6.00992 19.8074 5.50191 19.4383L4.62023 20.6518C5.42656 21.2377 6.37094 21.5 7.53648 21.6263C8.68798 21.751 10.1418 21.75 12 21.75V20.25ZM2.25 12C2.25 13.8582 2.24897 15.312 2.37373 16.4635C2.50001 17.6291 2.76232 18.5734 3.34815 19.3798L4.56168 18.4981C4.19259 17.9901 3.97745 17.3399 3.865 16.302C3.75103 15.25 3.75 13.8916 3.75 12H2.25ZM5.50191 19.4383C5.14111 19.1762 4.82382 18.8589 4.56168 18.4981L3.34815 19.3798C3.70281 19.8679 4.13209 20.2972 4.62023 20.6518L5.50191 19.4383ZM20.25 12C20.25 13.8916 20.249 15.25 20.135 16.302C20.0225 17.3399 19.8074 17.9901 19.4383 18.4981L20.6518 19.3798C21.2377 18.5734 21.5 17.6291 21.6263 16.4635C21.751 15.312 21.75 13.8582 21.75 12H20.25ZM12 21.75C13.8582 21.75 15.312 21.751 16.4635 21.6263C17.6291 21.5 18.5734 21.2377 19.3798 20.6518L18.4981 19.4383C17.9901 19.8074 17.3399 20.0225 16.302 20.135C15.25 20.249 13.8916 20.25 12 20.25V21.75ZM19.4383 18.4981C19.1762 18.8589 18.8589 19.1762 18.4981 19.4383L19.3798 20.6518C19.8679 20.2972 20.2972 19.8679 20.6518 19.3798L19.4383 18.4981ZM12 3.75C13.8916 3.75 15.25 3.75103 16.302 3.865C17.3399 3.97745 17.9901 4.19259 18.4981 4.56168L19.3798 3.34815C18.5734 2.76232 17.6291 2.50001 16.4635 2.37373C15.312 2.24897 13.8582 2.25 12 2.25V3.75ZM21.75 12C21.75 10.1418 21.751 8.68798 21.6263 7.53648C21.5 6.37094 21.2377 5.42656 20.6518 4.62023L19.4383 5.50191C19.8074 6.00992 20.0225 6.66013 20.135 7.69804C20.249 8.74999 20.25 10.1084 20.25 12H21.75ZM18.4981 4.56168C18.8589 4.82382 19.1762 5.14111 19.4383 5.50191L20.6518 4.62023C20.2972 4.13209 19.8679 3.70281 19.3798 3.34815L18.4981 4.56168ZM12 2.25C10.1418 2.25 8.68798 2.24897 7.53648 2.37373C6.37094 2.50001 5.42656 2.76232 4.62023 3.34815L5.50191 4.56168C6.00992 4.19259 6.66013 3.97745 7.69804 3.865C8.74999 3.75103 10.1084 3.75 12 3.75V2.25ZM3.75 12C3.75 10.1084 3.75103 8.74999 3.865 7.69804C3.97745 6.66013 4.19259 6.00992 4.56168 5.50191L3.34815 4.62023C2.76232 5.42656 2.50001 6.37094 2.37373 7.53648C2.24897 8.68798 2.25 10.1418 2.25 12H3.75ZM4.62023 3.34815C4.13209 3.70281 3.70281 4.13209 3.34815 4.62023L4.56168 5.50191C4.82382 5.14111 5.14111 4.82382 5.50191 4.56168L4.62023 3.34815ZM7.67335 15.1874L9.13368 12.2104L7.78698 11.5498L6.32665 14.5268L7.67335 15.1874ZM16.213 12.4502L17.6734 9.47316L16.3266 8.81256L14.8663 11.7896L16.213 12.4502ZM11.3058 12.284C12.185 14.433 15.1904 14.5348 16.213 12.4502L14.8663 11.7896C14.4137 12.7124 13.0833 12.6673 12.6942 11.716L11.3058 12.284ZM9.13368 12.2104C9.58632 11.2876 10.9167 11.3327 11.3058 12.284L12.6942 11.716C11.815 9.56698 8.80955 9.46517 7.78698 11.5498L9.13368 12.2104Z" fill="#5B5A69"/>
</svg>
