<svg width="24" height="24" viewBox="0 0 24 24" fill="none" xmlns="http://www.w3.org/2000/svg">
<path d="M11.0999 2H12.8029C15.7509 2 18.0318 4.58379 17.6662 7.50905L17.6015 8.02598C17.4466 9.26543 17.8972 10.5038 18.8125 11.3538L18.8564 11.3945C20.2045 12.6465 20.4661 14.6826 19.4783 16.2347C18.7785 17.3342 17.5656 18 16.2623 18H8.04144C6.52054 18 5.13331 17.1311 4.46954 15.7627L4.36619 15.5496C3.66383 14.1016 3.99242 12.3645 5.17514 11.2731C6.04102 10.4741 6.46808 9.30631 6.32194 8.13719L6.24258 7.50234C5.87737 4.58064 8.15552 2 11.0999 2Z" fill="#CED7FA"/>
<path d="M4.36619 15.5496L5.041 15.2223L4.36619 15.5496ZM5.17514 11.2731L5.68376 11.8243H5.68376L5.17514 11.2731ZM6.32194 8.13719L5.57773 8.23021V8.23021L6.32194 8.13719ZM18.8564 11.3945L19.3668 10.845L19.3668 10.845L18.8564 11.3945ZM19.4783 16.2347L18.8456 15.832L19.4783 16.2347ZM17.6015 8.02598L18.3458 8.11901V8.11901L17.6015 8.02598ZM18.8125 11.3538L18.3021 11.9033L18.3021 11.9033L18.8125 11.3538ZM4.46954 15.7627L3.79474 16.09H3.79474L4.46954 15.7627ZM17.6662 7.50905L16.922 7.41603V7.41603L17.6662 7.50905ZM6.24258 7.50234L6.98679 7.40931V7.40931L6.24258 7.50234ZM9.48336 21.4L10.0834 20.95H10.0834L9.48336 21.4ZM9.78336 20.55C9.53484 20.2186 9.06473 20.1515 8.73336 20.4C8.40199 20.6485 8.33484 21.1186 8.58336 21.45L9.78336 20.55ZM15.7834 21.45C16.0319 21.1186 15.9647 20.6485 15.6334 20.4C15.302 20.1515 14.8319 20.2186 14.5834 20.55L15.7834 21.45ZM14.8834 21.4L14.2834 20.95H14.2834L14.8834 21.4ZM11.0999 2.75H12.8029V1.25H11.0999V2.75ZM16.2623 17.25H8.04144V18.75H16.2623V17.25ZM16.922 7.41603L16.8573 7.93296L18.3458 8.11901L18.4104 7.60208L16.922 7.41603ZM18.3021 11.9033L18.346 11.9441L19.3668 10.845L19.3229 10.8042L18.3021 11.9033ZM7.06615 8.04416L6.98679 7.40931L5.49838 7.59536L5.57773 8.23021L7.06615 8.04416ZM5.14435 15.4353L5.041 15.2223L3.69139 15.8769L3.79474 16.09L5.14435 15.4353ZM5.041 15.2223C4.48292 14.0718 4.74401 12.6915 5.68376 11.8243L4.66651 10.7219C3.24083 12.0375 2.84474 14.1315 3.69139 15.8769L5.041 15.2223ZM5.57773 8.23021C5.69385 9.15916 5.35452 10.0871 4.66651 10.7219L5.68376 11.8243C6.72753 10.8611 7.24231 9.45345 7.06615 8.04416L5.57773 8.23021ZM18.346 11.9441C19.4289 12.9497 19.639 14.5852 18.8456 15.832L20.111 16.6373C21.2932 14.7799 20.9801 12.3432 19.3668 10.845L18.346 11.9441ZM16.8573 7.93296C16.6725 9.41174 17.2101 10.8892 18.3021 11.9033L19.3229 10.8042C18.5843 10.1183 18.2207 9.11912 18.3458 8.11901L16.8573 7.93296ZM8.04144 17.25C6.80787 17.25 5.68272 16.5452 5.14435 15.4353L3.79474 16.09C4.58391 17.7169 6.23321 18.75 8.04144 18.75V17.25ZM16.2623 18.75C17.822 18.75 19.2736 17.9532 20.111 16.6373L18.8456 15.832C18.2835 16.7152 17.3091 17.25 16.2623 17.25V18.75ZM12.8029 2.75C15.2998 2.75 17.2317 4.93841 16.922 7.41603L18.4104 7.60208C18.832 4.22918 16.202 1.25 12.8029 1.25V2.75ZM11.0999 1.25C7.70439 1.25 5.07721 4.22603 5.49838 7.59536L6.98679 7.40931C6.67754 4.93526 8.60664 2.75 11.0999 2.75V1.25ZM10.0834 20.95L9.78336 20.55L8.58336 21.45L8.88337 21.85L10.0834 20.95ZM14.5834 20.55L14.2834 20.95L15.4834 21.85L15.7834 21.45L14.5834 20.55ZM8.88336 21.85C10.5334 24.05 13.8334 24.05 15.4834 21.85L14.2834 20.95C13.2334 22.35 11.1334 22.35 10.0834 20.95L8.88336 21.85Z" fill="#5B5A69"/>
</svg>
