<svg width="40" height="40" viewBox="0 0 40 40" fill="none" xmlns="http://www.w3.org/2000/svg">
<path d="M0 20C0 8.95431 8.95431 0 20 0C31.0457 0 40 8.95431 40 20C40 31.0457 31.0457 40 20 40C8.95431 40 0 31.0457 0 20Z" fill="black"/>
<path d="M28.5236 10H11.4764C11.0848 10 10.7093 10.1555 10.4324 10.4324C10.1555 10.7093 10 11.0848 10 11.4764V28.5236C10 28.9152 10.1555 29.2907 10.4324 29.5676C10.7093 29.8445 11.0848 30 11.4764 30H28.5236C28.9152 30 29.2907 29.8445 29.5676 29.5676C29.8445 29.2907 30 28.9152 30 28.5236V11.4764C30 11.0848 29.8445 10.7093 29.5676 10.4324C29.2907 10.1555 28.9152 10 28.5236 10ZM15.9611 27.0375H12.9542V17.4861H15.9611V27.0375ZM14.4556 16.1625C14.1145 16.1606 13.7816 16.0577 13.4989 15.8667C13.2163 15.6758 12.9965 15.4054 12.8674 15.0897C12.7383 14.774 12.7055 14.4272 12.7734 14.0929C12.8412 13.7586 13.0065 13.4519 13.2485 13.2115C13.4904 12.9711 13.7982 12.8077 14.1329 12.7421C14.4676 12.6764 14.8143 12.7113 15.1291 12.8425C15.444 12.9736 15.7129 13.1951 15.9021 13.479C16.0912 13.7629 16.1919 14.0964 16.1917 14.4375C16.1949 14.6659 16.1521 14.8925 16.0658 15.104C15.9796 15.3155 15.8517 15.5074 15.6896 15.6684C15.5276 15.8294 15.3349 15.9561 15.1229 16.041C14.9108 16.1258 14.6839 16.1672 14.4556 16.1625ZM27.0444 27.0458H24.0389V21.8278C24.0389 20.2889 23.3847 19.8139 22.5403 19.8139C21.6486 19.8139 20.7736 20.4861 20.7736 21.8667V27.0458H17.7667V17.4931H20.6583V18.8167H20.6972C20.9875 18.2292 22.0042 17.225 23.5556 17.225C25.2333 17.225 27.0458 18.2208 27.0458 21.1375L27.0444 27.0458Z" fill="white"/>
</svg>
