<svg width="40" height="40" viewBox="0 0 40 40" fill="none" xmlns="http://www.w3.org/2000/svg">
<path d="M0 20C0 8.95431 8.95431 0 20 0C31.0457 0 40 8.95431 40 20C40 31.0457 31.0457 40 20 40C8.95431 40 0 31.0457 0 20Z" fill="black"/>
<path d="M16 32.9997C18.392 32.9997 20.3334 31.0584 20.3334 28.6664V24.333H16C13.608 24.333 11.6666 26.2744 11.6666 28.6664C11.6666 31.0584 13.608 32.9997 16 32.9997Z" fill="white"/>
<path d="M11.6666 20.0004C11.6666 17.6084 13.608 15.667 16 15.667H20.3334V24.3336H16C13.608 24.3337 11.6666 22.3924 11.6666 20.0004Z" fill="white"/>
<path d="M11.6666 11.3334C11.6666 8.94137 13.608 7 16 7H20.3334V15.6666H16C13.608 15.6666 11.6666 13.7254 11.6666 11.3334Z" fill="white"/>
<path d="M20.3333 7H24.6667C27.0587 7 29.0001 8.94137 29.0001 11.3334C29.0001 13.7254 27.0587 15.6666 24.6667 15.6666H20.3333V7Z" fill="white"/>
<path d="M29.0001 20.0004C29.0001 22.3924 27.0587 24.3337 24.6667 24.3337C22.2746 24.3337 20.3333 22.3924 20.3333 20.0004C20.3333 17.6084 22.2746 15.667 24.6667 15.667C27.0587 15.667 29.0001 17.6084 29.0001 20.0004Z" fill="white"/>
</svg>
