<svg width="40" height="40" viewBox="0 0 40 40" fill="none" xmlns="http://www.w3.org/2000/svg">
<path d="M0 20C0 8.95431 8.95431 0 20 0C31.0457 0 40 8.95431 40 20C40 31.0457 31.0457 40 20 40C8.95431 40 0 31.0457 0 20Z" fill="#191717"/>
<path fill-rule="evenodd" clip-rule="evenodd" d="M19.9953 7C16.7456 7.00169 13.6026 8.15263 11.1281 10.247C8.65362 12.3414 7.00906 15.2427 6.48849 18.4321C5.96792 21.6215 6.60527 24.8911 8.28661 27.6561C9.96794 30.4211 12.5836 32.5013 15.6659 33.5248C16.3459 33.651 16.602 33.2295 16.602 32.8712C16.602 32.5128 16.5884 31.4738 16.5839 30.3379C12.7759 31.1606 11.9712 28.731 11.9712 28.731C11.3501 27.1533 10.4525 26.7386 10.4525 26.7386C9.2104 25.8957 10.5455 25.9115 10.5455 25.9115C11.9214 26.0084 12.6444 27.3156 12.6444 27.3156C13.8639 29.3958 15.8472 28.7941 16.627 28.4425C16.7494 27.5613 17.1052 26.9618 17.4974 26.6214C14.4555 26.2789 11.2595 25.1114 11.2595 19.8961C11.2406 18.5436 11.7454 17.2356 12.6694 16.2428C12.5288 15.9002 12.0596 14.5164 12.8031 12.6367C12.8031 12.6367 13.9523 12.2716 16.568 14.0318C18.8117 13.4217 21.1788 13.4217 23.4225 14.0318C26.0359 12.2716 27.1829 12.6367 27.1829 12.6367C27.9286 14.5119 27.4594 15.8957 27.3189 16.2428C28.2458 17.2358 28.7516 18.546 28.731 19.9007C28.731 25.1272 25.5282 26.2789 22.4818 26.6147C22.9714 27.0384 23.4089 27.8655 23.4089 29.1367C23.4089 30.9577 23.393 32.4227 23.393 32.8712C23.393 33.234 23.6401 33.6577 24.3337 33.5248C27.4163 32.5012 30.0322 30.4206 31.7135 27.6551C33.3948 24.8896 34.0319 21.6196 33.5107 18.4299C32.9895 15.2402 31.3442 12.3389 28.8689 10.2449C26.3936 8.15081 23.2498 7.00062 19.9998 7H19.9953Z" fill="white"/>
<path d="M11.4905 26.543C11.461 26.6106 11.3522 26.6309 11.2638 26.5836C11.1754 26.5362 11.1097 26.4483 11.1414 26.3785C11.1731 26.3086 11.2797 26.2906 11.3681 26.3379C11.4565 26.3852 11.5245 26.4754 11.4905 26.543Z" fill="white"/>
<path d="M12.0456 27.1582C11.9987 27.1817 11.9449 27.1883 11.8937 27.1768C11.8424 27.1652 11.7968 27.1364 11.7645 27.0951C11.6761 27.0004 11.658 26.8697 11.726 26.8111C11.794 26.7525 11.9164 26.7796 12.0048 26.8742C12.0932 26.9689 12.1136 27.0996 12.0456 27.1582Z" fill="white"/>
<path d="M12.5852 27.9394C12.5013 27.998 12.3585 27.9394 12.2792 27.8222C12.2573 27.8012 12.2398 27.776 12.2279 27.7481C12.216 27.7202 12.2098 27.6902 12.2098 27.6599C12.2098 27.6296 12.216 27.5996 12.2279 27.5718C12.2398 27.5439 12.2573 27.5187 12.2792 27.4976C12.3631 27.4413 12.5059 27.4976 12.5852 27.6126C12.6645 27.7275 12.6668 27.8808 12.5852 27.9394Z" fill="white"/>
<path d="M13.3174 28.6975C13.2426 28.7809 13.0908 28.7584 12.9661 28.6457C12.8414 28.533 12.8119 28.3797 12.8867 28.2986C12.9615 28.2175 13.1134 28.24 13.2426 28.3505C13.3718 28.4609 13.3967 28.6164 13.3174 28.6975Z" fill="white"/>
<path d="M14.344 29.1386C14.31 29.2445 14.1559 29.2919 14.0018 29.2468C13.8476 29.2017 13.7456 29.0755 13.7751 28.9673C13.8046 28.8591 13.961 28.8095 14.1174 28.8591C14.2738 28.9087 14.3735 29.0282 14.344 29.1386Z" fill="white"/>
<path d="M15.4639 29.216C15.4639 29.3264 15.337 29.421 15.1738 29.4233C15.0106 29.4256 14.8768 29.3354 14.8768 29.225C14.8768 29.1145 15.0038 29.0199 15.167 29.0176C15.3302 29.0154 15.4639 29.1033 15.4639 29.216Z" fill="white"/>
<path d="M16.5066 29.0423C16.527 29.1527 16.4137 29.2677 16.2505 29.2947C16.0873 29.3218 15.9445 29.2564 15.9241 29.1482C15.9037 29.0401 16.0215 28.9229 16.1802 28.8936C16.3389 28.8643 16.4862 28.9319 16.5066 29.0423Z" fill="white"/>
</svg>
