<svg width="40" height="40" viewBox="0 0 40 40" fill="none" xmlns="http://www.w3.org/2000/svg">
<path d="M0 20C0 8.95431 8.95431 0 20 0C31.0457 0 40 8.95431 40 20C40 31.0457 31.0457 40 20 40C8.95431 40 0 31.0457 0 20Z" fill="black"/>
<path d="M27.049 27.1893L27.8479 21.9806H22.8504V18.6019C22.8504 17.1766 23.5472 15.7864 25.7855 15.7864H28.0591V11.3519C28.0591 11.3519 25.9967 11 24.0258 11C19.9081 11 17.2193 13.4953 17.2193 18.0107V21.9806H12.644V27.1893H17.2193V39.7818C18.1379 39.9261 19.0775 40 20.0348 40C20.9921 40 21.9318 39.9261 22.8504 39.7818V27.1893H27.049Z" fill="white"/>
</svg>
