<svg width="40" height="40" viewBox="0 0 40 40" fill="none" xmlns="http://www.w3.org/2000/svg">
<path d="M0 20C0 8.95431 8.95431 0 20 0C31.0457 0 40 8.95431 40 20C40 31.0457 31.0457 40 20 40C8.95431 40 0 31.0457 0 20Z" fill="black"/>
<path d="M20.9282 33.2331C18.0082 33.2331 15.299 32.3352 13.0504 30.8049C11.9964 31.3593 9.6151 31.4842 8.5767 31.3593C7.07766 31.1797 5.49274 29.9305 7.0152 28.7125C9.38087 26.8309 8.74066 26.0892 8.74066 26.0892C7.60857 24.0671 6.96055 21.7404 6.96055 19.2654C6.96836 11.5438 13.2222 5.29004 20.9282 5.29004C28.642 5.29004 34.8958 11.5438 34.8958 19.2576C34.8958 26.9714 28.642 33.2331 20.9282 33.2331ZM20.9282 7.3356C14.2996 7.3356 8.92804 12.715 8.92804 19.3435C8.92804 21.6233 9.56825 23.7626 10.6691 25.5817C10.6691 25.5817 11.4577 27.6195 9.43552 29.1419C10.7003 29.5713 13.3705 28.7828 13.5032 28.7828C15.5488 30.3911 18.1253 31.3514 20.9282 31.3514C27.5567 31.3514 32.9361 25.9721 32.9361 19.3435C32.9361 12.715 27.5645 7.3356 20.9282 7.3356ZM27.3537 22.7788C25.8859 22.7788 24.7538 21.8107 24.7538 20.1867C24.7538 18.5628 25.8234 17.5244 27.4396 17.5244C28.9855 17.5244 30.0083 18.5862 30.0083 20.1009C30.0083 21.9356 28.7044 22.7788 27.3537 22.7788ZM27.4006 18.633C26.651 18.633 26.37 19.406 26.37 20.1477C26.37 21.0143 26.7291 21.6623 27.4006 21.6623C28.0095 21.6623 28.3999 21.0534 28.3999 20.1477C28.3921 19.3982 28.111 18.633 27.4006 18.633ZM23.0284 22.6695C23.0284 22.6695 22.435 22.6695 22.1852 22.6695C21.787 22.6695 21.8651 22.0918 21.8651 22.0918V19.9291C21.8651 19.1952 21.6308 18.7736 21.1233 18.7736C20.7642 18.7736 20.5065 19.0234 20.405 19.3201C20.366 19.4372 20.3426 19.6012 20.3426 19.7183V22.1698C20.3426 22.1698 20.3504 22.6617 19.9132 22.6617C19.5931 22.6617 19.2183 22.6617 19.2183 22.6617C19.2183 22.6617 18.8201 22.6305 18.8201 22.123C18.8201 21.3032 18.8201 19.8354 18.8201 19.8354C18.8201 19.1952 18.5937 18.7658 18.1018 18.7658C17.7037 18.7658 17.4616 19.0781 17.3679 19.3357C17.3133 19.4606 17.3055 19.6012 17.3055 19.7261V22.123C17.3055 22.123 17.3601 22.6617 16.9541 22.6617C16.7511 22.6617 16.5013 22.6617 16.2827 22.6617C15.783 22.6617 15.783 22.123 15.783 22.123V19.2342C15.783 18.7423 15.7518 17.9304 15.7518 17.9304C15.7518 17.9304 15.744 17.6259 16.0719 17.6259C16.2749 17.6259 16.5247 17.6259 16.7277 17.6259C17.04 17.6259 17.0947 17.9304 17.0947 17.9304L17.1337 18.3051H17.1649C17.3835 17.985 17.8208 17.5088 18.6874 17.5088C19.3354 17.5088 19.8507 17.8367 20.0693 18.3598H20.0927C20.2801 18.1021 20.5065 17.8991 20.7408 17.7508C21.0218 17.5868 21.3263 17.501 21.7011 17.501C22.6692 17.501 23.3953 18.1802 23.3953 19.6871C23.3953 19.6871 23.3953 21.2642 23.3953 22.1152C23.3875 22.6305 23.0284 22.6695 23.0284 22.6695ZM13.3237 16.5875C12.8318 16.5875 12.5039 16.2361 12.5117 15.8067C12.5039 15.3539 12.8318 15.0104 13.3315 15.0104C13.8389 15.0104 14.1512 15.3539 14.1669 15.8067C14.1669 16.2439 13.8389 16.5875 13.3237 16.5875ZM12.8708 17.6337C13.23 17.6337 13.7765 17.6337 13.7765 17.6337C13.7765 17.6337 14.12 17.6337 14.12 18.0241C14.12 18.9375 14.12 22.2167 14.12 22.2167C14.12 22.2167 14.1434 22.6695 13.7609 22.6695C13.3783 22.6695 12.8318 22.6695 12.8318 22.6695C12.8318 22.6695 12.5585 22.6539 12.5585 22.2791C12.5585 21.1549 12.5585 17.9538 12.5585 17.9538C12.5585 17.9538 12.5507 17.6337 12.8708 17.6337Z" fill="white"/>
</svg>
