<svg width="40" height="40" viewBox="0 0 40 40" fill="none" xmlns="http://www.w3.org/2000/svg">
<path d="M20 40C31.0457 40 40 31.0457 40 20C40 8.9543 31.0457 0 20 0C8.9543 0 0 8.9543 0 20C0 31.0457 8.9543 40 20 40Z" fill="black"/>
<path d="M33.3334 19.9998C33.3334 18.3858 32.0234 17.0758 30.4094 17.0758C29.6141 17.0758 28.9123 17.3799 28.3977 17.8946C26.4094 16.4677 23.6492 15.532 20.6082 15.415L21.9416 9.16941L26.2691 10.0817C26.3158 11.1811 27.2281 12.07 28.3509 12.07C29.4971 12.07 30.4328 11.1343 30.4328 9.98812C30.4328 8.84192 29.4971 7.90625 28.3509 7.90625C27.5322 7.90625 26.8305 8.37409 26.503 9.07584L21.6609 8.0466C21.5205 8.02321 21.3802 8.0466 21.2632 8.11678C21.1463 8.18695 21.0761 8.30391 21.0293 8.44426L19.5556 15.415C16.4445 15.5086 13.6609 16.4209 11.6492 17.8946C11.1346 17.4033 10.4094 17.0758 9.63748 17.0758C8.02344 17.0758 6.7135 18.3858 6.7135 19.9998C6.7135 21.1928 7.41526 22.1986 8.4445 22.6665C8.39771 22.9472 8.37432 23.2513 8.37432 23.5554C8.37432 28.0466 13.5907 31.6723 20.0468 31.6723C26.503 31.6723 31.7193 28.0466 31.7193 23.5554C31.7193 23.2513 31.696 22.9706 31.6492 22.6899C32.6082 22.222 33.3334 21.1928 33.3334 19.9998ZM13.3334 22.0817C13.3334 20.9355 14.2691 19.9998 15.4153 19.9998C16.5615 19.9998 17.4971 20.9355 17.4971 22.0817C17.4971 23.2279 16.5615 24.1636 15.4153 24.1636C14.2691 24.1636 13.3334 23.2279 13.3334 22.0817ZM24.9591 27.5788C23.5322 29.0057 20.8188 29.0992 20.0234 29.0992C19.2281 29.0992 16.4913 28.9823 15.0878 27.5788C14.8772 27.3682 14.8772 27.0174 15.0878 26.8068C15.2983 26.5963 15.6492 26.5963 15.8597 26.8068C16.7486 27.6957 18.6667 28.0232 20.0468 28.0232C21.427 28.0232 23.3217 27.6957 24.234 26.8068C24.4445 26.5963 24.7954 26.5963 25.0059 26.8068C25.1696 27.0408 25.1696 27.3682 24.9591 27.5788ZM24.5848 24.1636C23.4386 24.1636 22.503 23.2279 22.503 22.0817C22.503 20.9355 23.4386 19.9998 24.5848 19.9998C25.731 19.9998 26.6667 20.9355 26.6667 22.0817C26.6667 23.2279 25.731 24.1636 24.5848 24.1636Z" fill="white"/>
</svg>
