<svg width="40" height="40" viewBox="0 0 40 40" fill="none" xmlns="http://www.w3.org/2000/svg">
<path d="M0 20C0 8.95431 8.95431 0 20 0C31.0457 0 40 8.95431 40 20C40 31.0457 31.0457 40 20 40C8.95431 40 0 31.0457 0 20Z" fill="black"/>
<path d="M21.8868 20.3794C21.8868 25.0071 18.1676 28.7586 13.5799 28.7586C8.99224 28.7586 5.27271 25.0063 5.27271 20.3794C5.27271 15.7526 8.99195 12 13.5799 12C18.1679 12 21.8868 15.7518 21.8868 20.3794Z" fill="white"/>
<path d="M30.9998 20.3798C30.9998 24.7358 29.1402 28.2684 26.8462 28.2684C24.5523 28.2684 22.6926 24.7358 22.6926 20.3798C22.6926 16.0238 24.552 12.4912 26.846 12.4912C29.1399 12.4912 30.9996 16.0227 30.9996 20.3798" fill="white"/>
<path d="M34.7272 20.3794C34.7272 24.2813 34.0732 27.4464 33.2663 27.4464C32.4594 27.4464 31.8058 24.2822 31.8058 20.3794C31.8058 16.4767 32.4597 13.3125 33.2663 13.3125C34.073 13.3125 34.7272 16.4764 34.7272 20.3794Z" fill="white"/>
</svg>
