<svg width="40" height="40" viewBox="0 0 40 40" fill="none" xmlns="http://www.w3.org/2000/svg">
<path d="M0 20C0 8.95431 8.95431 0 20 0C31.0457 0 40 8.95431 40 20C40 31.0457 31.0457 40 20 40C8.95431 40 0 31.0457 0 20Z" fill="black"/>
<path d="M25.1754 8H20.8347V24.7837C20.8347 26.7836 19.1653 28.4262 17.0877 28.4262C15.0101 28.4262 13.3406 26.7836 13.3406 24.7837C13.3406 22.8197 14.973 21.2127 16.9764 21.1413V16.9276C12.5616 16.9989 9 20.4628 9 24.7837C9 29.1404 12.6357 32.64 17.1248 32.64C21.6138 32.64 25.2496 29.1047 25.2496 24.7837V16.1776C26.882 17.3204 28.8853 17.9988 31 18.0346V13.8208C27.7353 13.7136 25.1754 11.1425 25.1754 8Z" fill="white"/>
</svg>
